<svg xmlns='http://www.w3.org/2000/svg' xmlns:xlink='http://www.w3.org/1999/xlink' width='432' height='96'>
<path fill="#fff" d=""/><path fill="#fcc28c" d="M105.07 39.84L101.14 39.84L101.14 18.77Q106.03 17.09 111.02 17.09L111.02 17.09Q112.56 17.09 113.95 17.21Q115.34 17.33 117.02 17.71L117.02 17.71L116.30 21.22Q114.77 20.78 113.59 20.66Q112.42 20.54 111.02 20.54L111.02 20.54Q108.10 20.54 105.07 21.36L105.07 21.36L105.07 39.84ZM132.43 17.04L132.43 17.04Q136.94 17.04 139.39 19.85Q141.84 22.66 141.84 28.37L141.84 28.37L141.84 29.76L125.90 29.76Q126.14 33.22 128.18 35.02Q130.22 36.82 133.92 36.82L133.92 36.82Q136.03 36.82 137.52 36.48Q139.01 36.14 139.78 35.76L139.78 35.76L140.30 39.12Q139.58 39.50 137.71 39.94Q135.84 40.37 133.49 40.37L133.49 40.37Q130.61 40.37 128.42 39.48Q126.24 38.59 124.80 37.06Q123.36 35.52 122.64 33.38Q121.92 31.25 121.92 28.75L121.92 28.75Q121.92 25.78 122.83 23.57Q123.74 21.36 125.23 19.92Q126.72 18.48 128.59 17.76Q130.46 17.04 132.43 17.04ZM126 26.54L137.81 26.54Q137.81 23.71 136.32 22.06Q134.83 20.40 132.38 20.40L132.38 20.40Q130.99 20.40 129.86 20.93Q128.74 21.46 127.92 22.32Q127.10 23.18 126.62 24.29Q126.14 25.39 126 26.54L126 26.54ZM155.66 10.66L155.66 17.57L165.07 17.57L165.07 20.88L155.66 20.88L155.66 31.25Q155.66 32.93 155.90 33.98Q156.14 35.04 156.70 35.69Q157.25 36.34 158.11 36.58Q158.98 36.82 160.22 36.82L160.22 36.82Q161.95 36.82 163.01 36.53Q164.06 36.24 165.02 35.76L165.02 35.76L165.60 39.12Q164.93 39.41 163.46 39.89Q162 40.37 159.84 40.37L159.84 40.37Q157.34 40.37 155.76 39.79Q154.18 39.22 153.29 38.06Q152.40 36.91 152.06 35.21Q151.73 33.50 151.73 31.25L151.73 31.25L151.73 20.88L147.02 20.88L147.02 17.57L151.73 17.57L151.73 11.33L155.66 10.66ZM188.59 17.57L188.59 39.22Q187.30 39.55 185.16 39.94Q183.02 40.32 180.14 40.32L180.14 40.32Q177.60 40.32 175.92 39.58Q174.24 38.83 173.18 37.46Q172.13 36.10 171.70 34.22Q171.26 32.35 171.26 30.10L171.26 30.10L171.26 17.57L175.20 17.57L175.20 29.23Q175.20 33.36 176.42 35.09Q177.65 36.82 180.53 36.82L180.53 36.82Q181.15 36.82 181.80 36.77Q182.45 36.72 183.02 36.65Q183.60 36.58 184.03 36.50Q184.46 36.43 184.61 36.38L184.61 36.38L184.61 17.57L188.59 17.57ZM201.07 39.84L197.14 39.84L197.14 18.77Q202.03 17.09 207.02 17.09L207.02 17.09Q208.56 17.09 209.95 17.21Q211.34 17.33 213.02 17.71L213.02 17.71L212.30 21.22Q210.77 20.78 209.59 20.66Q208.42 20.54 207.02 20.54L207.02 20.54Q204.10 20.54 201.07 21.36L201.07 21.36L201.07 39.84ZM219.41 39.84L219.41 18.19Q221.57 17.66 223.70 17.38Q225.84 17.09 227.71 17.09L227.71 17.09Q232.18 17.09 234.46 19.39Q236.74 21.70 236.74 26.78L236.74 26.78L236.74 39.84L232.80 39.84L232.80 27.50Q232.80 25.34 232.42 24.00Q232.03 22.66 231.34 21.91Q230.64 21.17 229.66 20.88Q228.67 20.59 227.52 20.59L227.52 20.59Q226.56 20.59 225.48 20.71Q224.40 20.83 223.39 21.02L223.39 21.02L223.39 39.84L219.41 39.84Z"/><path fill="#fff" d="M274.03 14.11L274.03 14.11Q272.78 14.11 271.87 13.25Q270.96 12.38 270.96 10.90L270.96 10.90Q270.96 9.41 271.87 8.54Q272.78 7.68 274.03 7.68L274.03 7.68Q275.33 7.68 276.22 8.54Q277.10 9.41 277.10 10.90L277.10 10.90Q277.10 12.38 276.22 13.25Q275.33 14.11 274.03 14.11ZM273.02 31.25L273.02 20.88L266.59 20.88L266.59 17.57L276.96 17.57L276.96 31.25Q276.96 34.56 277.87 35.69Q278.78 36.82 280.61 36.82L280.61 36.82Q282 36.82 283.18 36.48Q284.35 36.14 285.02 35.76L285.02 35.76L285.60 39.12Q285.31 39.26 284.78 39.48Q284.26 39.70 283.56 39.89Q282.86 40.08 282.02 40.22Q281.18 40.37 280.27 40.37L280.27 40.37Q278.16 40.37 276.77 39.79Q275.38 39.22 274.54 38.06Q273.70 36.91 273.36 35.21Q273.02 33.50 273.02 31.25L273.02 31.25ZM314.21 28.90L314.21 25.54L322.27 25.54L322.27 16.70L325.73 16.70L325.73 25.54L333.84 25.54L333.84 28.90L325.73 28.90L325.73 37.78L322.27 37.78L322.27 28.90L314.21 28.90ZM374.78 14.11L374.78 14.11Q373.54 14.11 372.62 13.25Q371.71 12.38 371.71 10.90L371.71 10.90Q371.71 9.41 372.62 8.54Q373.54 7.68 374.78 7.68L374.78 7.68Q376.08 7.68 376.97 8.54Q377.86 9.41 377.86 10.90L377.86 10.90Q377.86 12.38 376.97 13.25Q376.08 14.11 374.78 14.11ZM374.50 20.88L365.47 20.88L365.47 17.57L378.43 17.57L378.43 39.60Q378.43 41.90 377.78 43.51Q377.14 45.12 376.06 46.13Q374.98 47.14 373.56 47.57Q372.14 48 370.56 48L370.56 48Q368.74 48 366.89 47.62Q365.04 47.23 363.41 46.42L363.41 46.42L364.61 43.06Q365.81 43.63 367.27 44.04Q368.74 44.45 370.08 44.45L370.08 44.45Q372 44.45 373.25 43.46Q374.50 42.48 374.50 39.65L374.50 39.65L374.50 20.88ZM390.67 46.75L390 43.63Q390.86 43.44 391.70 43.25Q392.54 43.06 393.26 42.70Q393.98 42.34 394.56 41.78Q395.14 41.23 395.47 40.27L395.47 40.27Q393.94 40.13 393.24 39.10Q392.54 38.06 392.54 37.06L392.54 37.06Q392.54 35.14 393.62 34.15Q394.70 33.17 396.10 33.17L396.10 33.17Q397.87 33.17 398.78 34.44Q399.70 35.71 399.70 37.54L399.70 37.54Q399.70 38.93 399.14 40.44Q398.59 41.95 397.46 43.27Q396.34 44.59 394.66 45.53Q392.98 46.46 390.67 46.75L390.67 46.75ZM399.55 21.26L399.55 21.26Q399.55 22.70 398.59 23.81Q397.63 24.91 396.05 24.91L396.05 24.91Q394.42 24.91 393.46 23.81Q392.50 22.70 392.50 21.26L392.50 21.26Q392.50 19.78 393.46 18.67Q394.42 17.57 396.05 17.57L396.05 17.57Q397.63 17.57 398.59 18.67Q399.55 19.78 399.55 21.26Z"/><path fill="#fff" d="M20.21 73.49L20.21 76.56L18.29 76.56Q17.47 76.56 16.87 76.92Q16.27 77.28 15.86 77.88Q15.46 78.48 15.24 79.22Q15.02 79.97 15.02 80.74L15.02 80.74L15.02 88.46Q15.02 90.24 14.66 91.58Q14.30 92.93 13.42 93.86Q12.53 94.80 11.06 95.28Q9.60 95.76 7.39 95.76L7.39 95.76L3.50 95.76L3.50 92.64L7.58 92.64Q9.60 92.64 10.44 91.73Q11.28 90.82 11.28 88.42L11.28 88.42L11.28 81.79Q11.28 78.58 12.24 77.06Q13.20 75.55 14.45 75.02L14.45 75.02Q13.20 74.45 12.24 72.86Q11.28 71.28 11.28 68.26L11.28 68.26L11.28 61.63Q11.28 59.23 10.42 58.32Q9.55 57.41 7.54 57.41L7.54 57.41L3.50 57.41L3.50 54.29L7.39 54.29Q9.60 54.29 11.06 54.77Q12.53 55.25 13.42 56.18Q14.30 57.12 14.66 58.46Q15.02 59.81 15.02 61.58L15.02 61.58L15.02 69.31Q15.02 70.03 15.22 70.78Q15.41 71.52 15.82 72.12Q16.22 72.72 16.82 73.10Q17.42 73.49 18.24 73.49L18.24 73.49L20.21 73.49Z"/></svg>