<svg xmlns='http://www.w3.org/2000/svg' xmlns:xlink='http://www.w3.org/1999/xlink' width='864' height='48'>
<path fill="#fcc28c" d="M11.66 39.84L7.73 39.84L7.73 20.88L3.02 20.88L3.02 17.57L7.73 17.57L7.73 15.55Q7.73 12.96 8.45 11.26Q9.17 9.55 10.34 8.50Q11.52 7.44 13.08 7.01Q14.64 6.58 16.37 6.58L16.37 6.58Q18.10 6.58 19.85 6.96Q21.60 7.34 23.14 7.87L23.14 7.87L22.42 11.28Q21.36 10.75 19.78 10.37Q18.19 9.98 16.56 9.98L16.56 9.98Q15.55 9.98 14.66 10.25Q13.78 10.51 13.10 11.16Q12.43 11.81 12.05 12.89Q11.66 13.97 11.66 15.60L11.66 15.60L11.66 17.57L20.64 17.57L20.64 20.88L11.66 20.88L11.66 39.84ZM44.59 17.57L44.59 39.22Q43.30 39.55 41.16 39.94Q39.02 40.32 36.14 40.32L36.14 40.32Q33.60 40.32 31.92 39.58Q30.24 38.83 29.18 37.46Q28.13 36.10 27.70 34.22Q27.26 32.35 27.26 30.10L27.26 30.10L27.26 17.57L31.20 17.57L31.20 29.23Q31.20 33.36 32.42 35.09Q33.65 36.82 36.53 36.82L36.53 36.82Q37.15 36.82 37.80 36.77Q38.45 36.72 39.02 36.65Q39.60 36.58 40.03 36.50Q40.46 36.43 40.61 36.38L40.61 36.38L40.61 17.57L44.59 17.57ZM51.41 39.84L51.41 18.19Q53.57 17.66 55.70 17.38Q57.84 17.09 59.71 17.09L59.71 17.09Q64.18 17.09 66.46 19.39Q68.74 21.70 68.74 26.78L68.74 26.78L68.74 39.84L64.80 39.84L64.80 27.50Q64.80 25.34 64.42 24.00Q64.03 22.66 63.34 21.91Q62.64 21.17 61.66 20.88Q60.67 20.59 59.52 20.59L59.52 20.59Q58.56 20.59 57.48 20.71Q56.40 20.83 55.39 21.02L55.39 21.02L55.39 39.84L51.41 39.84ZM74.35 28.75L74.35 28.75Q74.35 25.73 75.31 23.52Q76.27 21.31 77.95 19.87Q79.63 18.43 81.86 17.74Q84.10 17.04 86.64 17.04L86.64 17.04Q88.27 17.04 89.88 17.26Q91.49 17.47 93.31 18.05L93.31 18.05L92.40 21.46Q90.82 20.88 89.50 20.71Q88.18 20.54 86.83 20.54L86.83 20.54Q85.10 20.54 83.57 21.00Q82.03 21.46 80.90 22.44Q79.78 23.42 79.10 24.98Q78.43 26.54 78.43 28.75L78.43 28.75Q78.43 30.86 79.06 32.38Q79.68 33.89 80.81 34.87Q81.94 35.86 83.52 36.34Q85.10 36.82 87.02 36.82L87.02 36.82Q88.56 36.82 89.98 36.65Q91.39 36.48 93.07 35.90L93.07 35.90L93.65 39.22Q91.97 39.84 90.24 40.10Q88.51 40.37 86.50 40.37L86.50 40.37Q83.81 40.37 81.58 39.62Q79.34 38.88 77.74 37.44Q76.13 36 75.24 33.82Q74.35 31.63 74.35 28.75ZM107.66 10.66L107.66 17.57L117.07 17.57L117.07 20.88L107.66 20.88L107.66 31.25Q107.66 32.93 107.90 33.98Q108.14 35.04 108.70 35.69Q109.25 36.34 110.11 36.58Q110.98 36.82 112.22 36.82L112.22 36.82Q113.95 36.82 115.01 36.53Q116.06 36.24 117.02 35.76L117.02 35.76L117.60 39.12Q116.93 39.41 115.46 39.89Q114 40.37 111.84 40.37L111.84 40.37Q109.34 40.37 107.76 39.79Q106.18 39.22 105.29 38.06Q104.40 36.91 104.06 35.21Q103.73 33.50 103.73 31.25L103.73 31.25L103.73 20.88L99.02 20.88L99.02 17.57L103.73 17.57L103.73 11.33L107.66 10.66ZM130.03 14.11L130.03 14.11Q128.78 14.11 127.87 13.25Q126.96 12.38 126.96 10.90L126.96 10.90Q126.96 9.41 127.87 8.54Q128.78 7.68 130.03 7.68L130.03 7.68Q131.33 7.68 132.22 8.54Q133.10 9.41 133.10 10.90L133.10 10.90Q133.10 12.38 132.22 13.25Q131.33 14.11 130.03 14.11ZM129.02 31.25L129.02 20.88L122.59 20.88L122.59 17.57L132.96 17.57L132.96 31.25Q132.96 34.56 133.87 35.69Q134.78 36.82 136.61 36.82L136.61 36.82Q138 36.82 139.18 36.48Q140.35 36.14 141.02 35.76L141.02 35.76L141.60 39.12Q141.31 39.26 140.78 39.48Q140.26 39.70 139.56 39.89Q138.86 40.08 138.02 40.22Q137.18 40.37 136.27 40.37L136.27 40.37Q134.16 40.37 132.77 39.79Q131.38 39.22 130.54 38.06Q129.70 36.91 129.36 35.21Q129.02 33.50 129.02 31.25L129.02 31.25ZM166.08 28.70L166.08 28.70Q166.08 31.34 165.34 33.48Q164.59 35.62 163.25 37.15Q161.90 38.69 160.03 39.53Q158.16 40.37 155.95 40.37L155.95 40.37Q153.79 40.37 151.94 39.53Q150.10 38.69 148.75 37.15Q147.41 35.62 146.66 33.48Q145.92 31.34 145.92 28.70L145.92 28.70Q145.92 26.06 146.66 23.90Q147.41 21.74 148.75 20.23Q150.10 18.72 151.94 17.88Q153.79 17.04 155.95 17.04L155.95 17.04Q158.16 17.04 160.03 17.88Q161.90 18.72 163.25 20.23Q164.59 21.74 165.34 23.90Q166.08 26.06 166.08 28.70ZM162 28.70L162 28.70Q162 24.91 160.37 22.73Q158.74 20.54 155.95 20.54L155.95 20.54Q153.22 20.54 151.61 22.73Q150 24.91 150 28.70L150 28.70Q150 32.45 151.61 34.63Q153.22 36.82 155.95 36.82L155.95 36.82Q158.74 36.82 160.37 34.63Q162 32.45 162 28.70ZM171.41 39.84L171.41 18.19Q173.57 17.66 175.70 17.38Q177.84 17.09 179.71 17.09L179.71 17.09Q184.18 17.09 186.46 19.39Q188.74 21.70 188.74 26.78L188.74 26.78L188.74 39.84L184.80 39.84L184.80 27.50Q184.80 25.34 184.42 24.00Q184.03 22.66 183.34 21.91Q182.64 21.17 181.66 20.88Q180.67 20.59 179.52 20.59L179.52 20.59Q178.56 20.59 177.48 20.71Q176.40 20.83 175.39 21.02L175.39 21.02L175.39 39.84L171.41 39.84Z"/><path fill="#fff" d=""/><path fill="#ffa" d="M227.66 39.84L223.73 39.84L223.73 20.88L219.02 20.88L219.02 17.57L223.73 17.57L223.73 15.55Q223.73 12.96 224.45 11.26Q225.17 9.55 226.34 8.50Q227.52 7.44 229.08 7.01Q230.64 6.58 232.37 6.58L232.37 6.58Q234.10 6.58 235.85 6.96Q237.60 7.34 239.14 7.87L239.14 7.87L238.42 11.28Q237.36 10.75 235.78 10.37Q234.19 9.98 232.56 9.98L232.56 9.98Q231.55 9.98 230.66 10.25Q229.78 10.51 229.10 11.16Q228.43 11.81 228.05 12.89Q227.66 13.97 227.66 15.60L227.66 15.60L227.66 17.57L236.64 17.57L236.64 20.88L227.66 20.88L227.66 39.84ZM262.08 28.70L262.08 28.70Q262.08 31.34 261.34 33.48Q260.59 35.62 259.25 37.15Q257.90 38.69 256.03 39.53Q254.16 40.37 251.95 40.37L251.95 40.37Q249.79 40.37 247.94 39.53Q246.10 38.69 244.75 37.15Q243.41 35.62 242.66 33.48Q241.92 31.34 241.92 28.70L241.92 28.70Q241.92 26.06 242.66 23.90Q243.41 21.74 244.75 20.23Q246.10 18.72 247.94 17.88Q249.79 17.04 251.95 17.04L251.95 17.04Q254.16 17.04 256.03 17.88Q257.90 18.72 259.25 20.23Q260.59 21.74 261.34 23.90Q262.08 26.06 262.08 28.70ZM258 28.70L258 28.70Q258 24.91 256.37 22.73Q254.74 20.54 251.95 20.54L251.95 20.54Q249.22 20.54 247.61 22.73Q246 24.91 246 28.70L246 28.70Q246 32.45 247.61 34.63Q249.22 36.82 251.95 36.82L251.95 36.82Q254.74 36.82 256.37 34.63Q258 32.45 258 28.70ZM286.08 28.70L286.08 28.70Q286.08 31.34 285.34 33.48Q284.59 35.62 283.25 37.15Q281.90 38.69 280.03 39.53Q278.16 40.37 275.95 40.37L275.95 40.37Q273.79 40.37 271.94 39.53Q270.10 38.69 268.75 37.15Q267.41 35.62 266.66 33.48Q265.92 31.34 265.92 28.70L265.92 28.70Q265.92 26.06 266.66 23.90Q267.41 21.74 268.75 20.23Q270.10 18.72 271.94 17.88Q273.79 17.04 275.95 17.04L275.95 17.04Q278.16 17.04 280.03 17.88Q281.90 18.72 283.25 20.23Q284.59 21.74 285.34 23.90Q286.08 26.06 286.08 28.70ZM282 28.70L282 28.70Q282 24.91 280.37 22.73Q278.74 20.54 275.95 20.54L275.95 20.54Q273.22 20.54 271.61 22.73Q270 24.91 270 28.70L270 28.70Q270 32.45 271.61 34.63Q273.22 36.82 275.95 36.82L275.95 36.82Q278.74 36.82 280.37 34.63Q282 32.45 282 28.70Z"/><path fill="#fff" d="M306.48 9.07L306.43 9.07Q301.97 12.53 299.62 17.04Q297.26 21.55 297.26 26.88L297.26 26.88Q297.26 29.57 297.82 31.97Q298.37 34.37 299.50 36.58Q300.62 38.78 302.38 40.85Q304.13 42.91 306.53 44.98L306.53 44.98L304.37 47.86Q298.85 43.78 296.14 38.38Q293.42 32.98 293.42 26.98L293.42 26.98Q293.42 21.02 296.16 15.60Q298.90 10.18 304.37 6.19L304.37 6.19L306.48 9.07Z"/><path fill="#7bd694" d="M322.03 14.11L322.03 14.11Q320.78 14.11 319.87 13.25Q318.96 12.38 318.96 10.90L318.96 10.90Q318.96 9.41 319.87 8.54Q320.78 7.68 322.03 7.68L322.03 7.68Q323.33 7.68 324.22 8.54Q325.10 9.41 325.10 10.90L325.10 10.90Q325.10 12.38 324.22 13.25Q323.33 14.11 322.03 14.11ZM321.02 31.25L321.02 20.88L314.59 20.88L314.59 17.57L324.96 17.57L324.96 31.25Q324.96 34.56 325.87 35.69Q326.78 36.82 328.61 36.82L328.61 36.82Q330 36.82 331.18 36.48Q332.35 36.14 333.02 35.76L333.02 35.76L333.60 39.12Q333.31 39.26 332.78 39.48Q332.26 39.70 331.56 39.89Q330.86 40.08 330.02 40.22Q329.18 40.37 328.27 40.37L328.27 40.37Q326.16 40.37 324.77 39.79Q323.38 39.22 322.54 38.06Q321.70 36.91 321.36 35.21Q321.02 33.50 321.02 31.25L321.02 31.25Z"/><path fill="#fff" d="M351.55 36.77L351.55 36.77Q351.55 38.21 350.59 39.31Q349.63 40.42 348.05 40.42L348.05 40.42Q346.42 40.42 345.46 39.31Q344.50 38.21 344.50 36.77L344.50 36.77Q344.50 35.28 345.46 34.18Q346.42 33.07 348.05 33.07L348.05 33.07Q349.63 33.07 350.59 34.18Q351.55 35.28 351.55 36.77ZM351.55 21.26L351.55 21.26Q351.55 22.70 350.59 23.81Q349.63 24.91 348.05 24.91L348.05 24.91Q346.42 24.91 345.46 23.81Q344.50 22.70 344.50 21.26L344.50 21.26Q344.50 19.78 345.46 18.67Q346.42 17.57 348.05 17.57L348.05 17.57Q349.63 17.57 350.59 18.67Q351.55 19.78 351.55 21.26Z"/><path fill="#fcc28c" d="M387.41 39.84L387.41 18.19Q389.57 17.66 391.70 17.38Q393.84 17.09 395.71 17.09L395.71 17.09Q400.18 17.09 402.46 19.39Q404.74 21.70 404.74 26.78L404.74 26.78L404.74 39.84L400.80 39.84L400.80 27.50Q400.80 25.34 400.42 24.00Q400.03 22.66 399.34 21.91Q398.64 21.17 397.66 20.88Q396.67 20.59 395.52 20.59L395.52 20.59Q394.56 20.59 393.48 20.71Q392.40 20.83 391.39 21.02L391.39 21.02L391.39 39.84L387.41 39.84ZM428.59 17.57L428.59 39.22Q427.30 39.55 425.16 39.94Q423.02 40.32 420.14 40.32L420.14 40.32Q417.60 40.32 415.92 39.58Q414.24 38.83 413.18 37.46Q412.13 36.10 411.70 34.22Q411.26 32.35 411.26 30.10L411.26 30.10L411.26 17.57L415.20 17.57L415.20 29.23Q415.20 33.36 416.42 35.09Q417.65 36.82 420.53 36.82L420.53 36.82Q421.15 36.82 421.80 36.77Q422.45 36.72 423.02 36.65Q423.60 36.58 424.03 36.50Q424.46 36.43 424.61 36.38L424.61 36.38L424.61 17.57L428.59 17.57ZM433.97 39.84L433.97 18.19Q436.85 17.09 439.39 17.09L439.39 17.09Q440.78 17.09 442.01 17.50Q443.23 17.90 444.10 18.77L444.10 18.77Q446.16 17.09 448.51 17.09L448.51 17.09Q449.66 17.09 450.70 17.52Q451.73 17.95 452.52 18.82Q453.31 19.68 453.79 20.98Q454.27 22.27 454.27 24.00L454.27 24.00L454.27 39.84L450.67 39.84L450.67 23.90Q450.67 22.18 449.90 21.26Q449.14 20.35 447.98 20.35L447.98 20.35Q447.41 20.35 446.78 20.64Q446.16 20.93 445.63 21.55L445.63 21.55Q445.92 22.66 445.92 24.00L445.92 24.00L445.92 31.25L442.32 31.25L442.32 23.95Q442.32 22.27 441.79 21.31Q441.26 20.35 439.73 20.35L439.73 20.35Q438.77 20.35 437.57 20.78L437.57 20.78L437.57 39.84L433.97 39.84ZM463.39 6.58L463.39 18.38Q464.11 17.95 465.48 17.50Q466.85 17.04 468.53 17.04L468.53 17.04Q470.78 17.04 472.56 17.90Q474.34 18.77 475.56 20.30Q476.78 21.84 477.43 23.98Q478.08 26.11 478.08 28.70L478.08 28.70Q478.08 31.39 477.31 33.55Q476.54 35.71 475.15 37.22Q473.76 38.74 471.79 39.55Q469.82 40.37 467.42 40.37L467.42 40.37Q464.78 40.37 462.72 39.98Q460.66 39.60 459.41 39.22L459.41 39.22L459.41 7.25L463.39 6.58ZM463.39 22.27L463.39 36.38Q464.30 36.62 465.22 36.74Q466.13 36.86 466.94 36.86L466.94 36.86Q470.26 36.86 472.13 34.82Q474 32.78 474 28.70L474 28.70Q474 26.98 473.66 25.46Q473.33 23.95 472.61 22.87Q471.89 21.79 470.76 21.17Q469.63 20.54 468.05 20.54L468.05 20.54Q466.66 20.54 465.36 21.10Q464.06 21.65 463.39 22.27L463.39 22.27ZM492.43 17.04L492.43 17.04Q496.94 17.04 499.39 19.85Q501.84 22.66 501.84 28.37L501.84 28.37L501.84 29.76L485.90 29.76Q486.14 33.22 488.18 35.02Q490.22 36.82 493.92 36.82L493.92 36.82Q496.03 36.82 497.52 36.48Q499.01 36.14 499.78 35.76L499.78 35.76L500.30 39.12Q499.58 39.50 497.71 39.94Q495.84 40.37 493.49 40.37L493.49 40.37Q490.61 40.37 488.42 39.48Q486.24 38.59 484.80 37.06Q483.36 35.52 482.64 33.38Q481.92 31.25 481.92 28.75L481.92 28.75Q481.92 25.78 482.83 23.57Q483.74 21.36 485.23 19.92Q486.72 18.48 488.59 17.76Q490.46 17.04 492.43 17.04ZM486 26.54L497.81 26.54Q497.81 23.71 496.32 22.06Q494.83 20.40 492.38 20.40L492.38 20.40Q490.99 20.40 489.86 20.93Q488.74 21.46 487.92 22.32Q487.10 23.18 486.62 24.29Q486.14 25.39 486 26.54L486 26.54ZM513.07 39.84L509.14 39.84L509.14 18.77Q514.03 17.09 519.02 17.09L519.02 17.09Q520.56 17.09 521.95 17.21Q523.34 17.33 525.02 17.71L525.02 17.71L524.30 21.22Q522.77 20.78 521.59 20.66Q520.42 20.54 519.02 20.54L519.02 20.54Q516.10 20.54 513.07 21.36L513.07 21.36L513.07 39.84Z"/><path fill="#fff" d="M535.82 46.75L535.15 43.63Q536.02 43.44 536.86 43.25Q537.70 43.06 538.42 42.70Q539.14 42.34 539.71 41.78Q540.29 41.23 540.62 40.27L540.62 40.27Q539.09 40.13 538.39 39.10Q537.70 38.06 537.70 37.06L537.70 37.06Q537.70 35.14 538.78 34.15Q539.86 33.17 541.25 33.17L541.25 33.17Q543.02 33.17 543.94 34.44Q544.85 35.71 544.85 37.54L544.85 37.54Q544.85 38.93 544.30 40.44Q543.74 41.95 542.62 43.27Q541.49 44.59 539.81 45.53Q538.13 46.46 535.82 46.75L535.82 46.75Z"/><path fill="#7bd694" d="M590.78 14.11L590.78 14.11Q589.54 14.11 588.62 13.25Q587.71 12.38 587.71 10.90L587.71 10.90Q587.71 9.41 588.62 8.54Q589.54 7.68 590.78 7.68L590.78 7.68Q592.08 7.68 592.97 8.54Q593.86 9.41 593.86 10.90L593.86 10.90Q593.86 12.38 592.97 13.25Q592.08 14.11 590.78 14.11ZM590.50 20.88L581.47 20.88L581.47 17.57L594.43 17.57L594.43 39.60Q594.43 41.90 593.78 43.51Q593.14 45.12 592.06 46.13Q590.98 47.14 589.56 47.57Q588.14 48 586.56 48L586.56 48Q584.74 48 582.89 47.62Q581.04 47.23 579.41 46.42L579.41 46.42L580.61 43.06Q581.81 43.63 583.27 44.04Q584.74 44.45 586.08 44.45L586.08 44.45Q588 44.45 589.25 43.46Q590.50 42.48 590.50 39.65L590.50 39.65L590.50 20.88Z"/><path fill="#fff" d="M615.55 36.77L615.55 36.77Q615.55 38.21 614.59 39.31Q613.63 40.42 612.05 40.42L612.05 40.42Q610.42 40.42 609.46 39.31Q608.50 38.21 608.50 36.77L608.50 36.77Q608.50 35.28 609.46 34.18Q610.42 33.07 612.05 33.07L612.05 33.07Q613.63 33.07 614.59 34.18Q615.55 35.28 615.55 36.77ZM615.55 21.26L615.55 21.26Q615.55 22.70 614.59 23.81Q613.63 24.91 612.05 24.91L612.05 24.91Q610.42 24.91 609.46 23.81Q608.50 22.70 608.50 21.26L608.50 21.26Q608.50 19.78 609.46 18.67Q610.42 17.57 612.05 17.57L612.05 17.57Q613.63 17.57 614.59 18.67Q615.55 19.78 615.55 21.26Z"/><path fill="#fcc28c" d="M627.41 39.84L627.41 18.19Q629.57 17.66 631.70 17.38Q633.84 17.09 635.71 17.09L635.71 17.09Q640.18 17.09 642.46 19.39Q644.74 21.70 644.74 26.78L644.74 26.78L644.74 39.84L640.80 39.84L640.80 27.50Q640.80 25.34 640.42 24.00Q640.03 22.66 639.34 21.91Q638.64 21.17 637.66 20.88Q636.67 20.59 635.52 20.59L635.52 20.59Q634.56 20.59 633.48 20.71Q632.40 20.83 631.39 21.02L631.39 21.02L631.39 39.84L627.41 39.84ZM668.59 17.57L668.59 39.22Q667.30 39.55 665.16 39.94Q663.02 40.32 660.14 40.32L660.14 40.32Q657.60 40.32 655.92 39.58Q654.24 38.83 653.18 37.46Q652.13 36.10 651.70 34.22Q651.26 32.35 651.26 30.10L651.26 30.10L651.26 17.57L655.20 17.57L655.20 29.23Q655.20 33.36 656.42 35.09Q657.65 36.82 660.53 36.82L660.53 36.82Q661.15 36.82 661.80 36.77Q662.45 36.72 663.02 36.65Q663.60 36.58 664.03 36.50Q664.46 36.43 664.61 36.38L664.61 36.38L664.61 17.57L668.59 17.57ZM673.97 39.84L673.97 18.19Q676.85 17.09 679.39 17.09L679.39 17.09Q680.78 17.09 682.01 17.50Q683.23 17.90 684.10 18.77L684.10 18.77Q686.16 17.09 688.51 17.09L688.51 17.09Q689.66 17.09 690.70 17.52Q691.73 17.95 692.52 18.82Q693.31 19.68 693.79 20.98Q694.27 22.27 694.27 24.00L694.27 24.00L694.27 39.84L690.67 39.84L690.67 23.90Q690.67 22.18 689.90 21.26Q689.14 20.35 687.98 20.35L687.98 20.35Q687.41 20.35 686.78 20.64Q686.16 20.93 685.63 21.55L685.63 21.55Q685.92 22.66 685.92 24.00L685.92 24.00L685.92 31.25L682.32 31.25L682.32 23.95Q682.32 22.27 681.79 21.31Q681.26 20.35 679.73 20.35L679.73 20.35Q678.77 20.35 677.57 20.78L677.57 20.78L677.57 39.84L673.97 39.84ZM703.39 6.58L703.39 18.38Q704.11 17.95 705.48 17.50Q706.85 17.04 708.53 17.04L708.53 17.04Q710.78 17.04 712.56 17.90Q714.34 18.77 715.56 20.30Q716.78 21.84 717.43 23.98Q718.08 26.11 718.08 28.70L718.08 28.70Q718.08 31.39 717.31 33.55Q716.54 35.71 715.15 37.22Q713.76 38.74 711.79 39.55Q709.82 40.37 707.42 40.37L707.42 40.37Q704.78 40.37 702.72 39.98Q700.66 39.60 699.41 39.22L699.41 39.22L699.41 7.25L703.39 6.58ZM703.39 22.27L703.39 36.38Q704.30 36.62 705.22 36.74Q706.13 36.86 706.94 36.86L706.94 36.86Q710.26 36.86 712.13 34.82Q714 32.78 714 28.70L714 28.70Q714 26.98 713.66 25.46Q713.33 23.95 712.61 22.87Q711.89 21.79 710.76 21.17Q709.63 20.54 708.05 20.54L708.05 20.54Q706.66 20.54 705.36 21.10Q704.06 21.65 703.39 22.27L703.39 22.27ZM732.43 17.04L732.43 17.04Q736.94 17.04 739.39 19.85Q741.84 22.66 741.84 28.37L741.84 28.37L741.84 29.76L725.90 29.76Q726.14 33.22 728.18 35.02Q730.22 36.82 733.92 36.82L733.92 36.82Q736.03 36.82 737.52 36.48Q739.01 36.14 739.78 35.76L739.78 35.76L740.30 39.12Q739.58 39.50 737.71 39.94Q735.84 40.37 733.49 40.37L733.49 40.37Q730.61 40.37 728.42 39.48Q726.24 38.59 724.80 37.06Q723.36 35.52 722.64 33.38Q721.92 31.25 721.92 28.75L721.92 28.75Q721.92 25.78 722.83 23.57Q723.74 21.36 725.23 19.92Q726.72 18.48 728.59 17.76Q730.46 17.04 732.43 17.04ZM726 26.54L737.81 26.54Q737.81 23.71 736.32 22.06Q734.83 20.40 732.38 20.40L732.38 20.40Q730.99 20.40 729.86 20.93Q728.74 21.46 727.92 22.32Q727.10 23.18 726.62 24.29Q726.14 25.39 726 26.54L726 26.54ZM753.07 39.84L749.14 39.84L749.14 18.77Q754.03 17.09 759.02 17.09L759.02 17.09Q760.56 17.09 761.95 17.21Q763.34 17.33 765.02 17.71L765.02 17.71L764.30 21.22Q762.77 20.78 761.59 20.66Q760.42 20.54 759.02 20.54L759.02 20.54Q756.10 20.54 753.07 21.36L753.07 21.36L753.07 39.84Z"/><path fill="#fff" d="M773.47 44.98L773.52 44.98Q777.98 41.52 780.36 37.01Q782.74 32.50 782.74 27.17L782.74 27.17Q782.74 24.48 782.18 22.08Q781.63 19.68 780.48 17.47Q779.33 15.26 777.58 13.20Q775.82 11.14 773.42 9.07L773.42 9.07L775.58 6.19Q781.10 10.27 783.82 15.67Q786.53 21.07 786.53 27.07L786.53 27.07Q786.53 30.05 785.83 32.93Q785.14 35.81 783.77 38.47Q782.40 41.14 780.36 43.51Q778.32 45.89 775.58 47.86L775.58 47.86L773.47 44.98ZM819.79 28.56L819.79 25.49L821.71 25.49Q822.53 25.49 823.15 25.13Q823.78 24.77 824.18 24.17Q824.59 23.57 824.81 22.82Q825.02 22.08 825.02 21.31L825.02 21.31L825.02 13.58Q825.02 11.81 825.38 10.46Q825.74 9.12 826.61 8.18Q827.47 7.25 828.94 6.77Q830.40 6.29 832.61 6.29L832.61 6.29L836.50 6.29L836.50 9.41L832.42 9.41Q830.40 9.41 829.56 10.32Q828.72 11.23 828.72 13.63L828.72 13.63L828.72 20.26Q828.72 23.47 827.76 24.98Q826.80 26.50 825.55 27.02L825.55 27.02Q826.80 27.60 827.76 29.18Q828.72 30.77 828.72 33.79L828.72 33.79L828.72 40.42Q828.72 42.82 829.58 43.73Q830.45 44.64 832.46 44.64L832.46 44.64L836.50 44.64L836.50 47.76L832.61 47.76Q830.40 47.76 828.94 47.28Q827.47 46.80 826.61 45.86Q825.74 44.93 825.38 43.58Q825.02 42.24 825.02 40.46L825.02 40.46L825.02 32.74Q825.02 32.02 824.81 31.27Q824.59 30.53 824.18 29.93Q823.78 29.33 823.18 28.94Q822.58 28.56 821.76 28.56L821.76 28.56L819.79 28.56Z"/></svg>