<svg xmlns='http://www.w3.org/2000/svg' xmlns:xlink='http://www.w3.org/1999/xlink' width='840' height='48'>
<path fill="#fff" d=""/><path fill="#888" d="M116.69 6.29L103.39 47.76L99.31 47.76L112.70 6.29L116.69 6.29ZM133.78 19.82L133.78 19.82Q135.07 21.02 136.46 22.34Q137.86 23.66 138.82 25.15L138.82 25.15L139.01 25.39L135.65 27.84L135.41 27.55Q134.40 26.11 133.58 24.41Q132.77 22.70 132.05 21.12L132.05 21.12Q131.28 22.70 130.46 24.41Q129.65 26.11 128.54 27.55L128.54 27.55L128.30 27.79L124.99 25.39L125.23 25.10Q126.29 23.62 127.63 22.32Q128.98 21.02 130.27 19.82L130.27 19.82Q128.50 19.58 126.62 19.32Q124.75 19.06 123.07 18.48L123.07 18.48L122.74 18.38L124.03 14.45L124.37 14.59Q126.05 15.26 127.75 16.08Q129.46 16.90 130.99 17.76L130.99 17.76Q130.61 16.03 130.30 14.16Q129.98 12.29 129.98 10.46L129.98 10.46L129.98 10.13L134.11 10.13L134.11 10.46Q134.11 12.29 133.80 14.16Q133.49 16.03 133.10 17.76L133.10 17.76Q134.64 16.85 136.32 16.06Q138 15.26 139.68 14.64L139.68 14.64L140.02 14.50L141.26 18.43L140.98 18.53Q139.25 19.06 137.40 19.34Q135.55 19.63 133.78 19.82ZM179.28 9.84L179.28 9.84Q181.92 9.84 183.91 10.51Q185.90 11.18 187.22 12.41Q188.54 13.63 189.19 15.31Q189.84 16.99 189.84 19.06L189.84 19.06Q189.84 23.71 187.10 26.23Q184.37 28.75 178.90 28.75L178.90 28.75L175.44 28.75L175.44 39.84L171.50 39.84L171.50 10.56Q172.37 10.37 173.40 10.22Q174.43 10.08 175.46 9.98Q176.50 9.89 177.48 9.86Q178.46 9.84 179.28 9.84ZM179.57 13.25L179.57 13.25Q178.32 13.25 177.17 13.27Q176.02 13.30 175.44 13.39L175.44 13.39L175.44 25.39L178.70 25.39Q182.30 25.39 184.06 23.95Q185.81 22.51 185.81 19.20L185.81 19.20Q185.81 13.25 179.57 13.25ZM201.07 39.84L197.14 39.84L197.14 18.77Q202.03 17.09 207.02 17.09L207.02 17.09Q208.56 17.09 209.95 17.21Q211.34 17.33 213.02 17.71L213.02 17.71L212.30 21.22Q210.77 20.78 209.59 20.66Q208.42 20.54 207.02 20.54L207.02 20.54Q204.10 20.54 201.07 21.36L201.07 21.36L201.07 39.84ZM228.43 17.04L228.43 17.04Q232.94 17.04 235.39 19.85Q237.84 22.66 237.84 28.37L237.84 28.37L237.84 29.76L221.90 29.76Q222.14 33.22 224.18 35.02Q226.22 36.82 229.92 36.82L229.92 36.82Q232.03 36.82 233.52 36.48Q235.01 36.14 235.78 35.76L235.78 35.76L236.30 39.12Q235.58 39.50 233.71 39.94Q231.84 40.37 229.49 40.37L229.49 40.37Q226.61 40.37 224.42 39.48Q222.24 38.59 220.80 37.06Q219.36 35.52 218.64 33.38Q217.92 31.25 217.92 28.75L217.92 28.75Q217.92 25.78 218.83 23.57Q219.74 21.36 221.23 19.92Q222.72 18.48 224.59 17.76Q226.46 17.04 228.43 17.04ZM222 26.54L233.81 26.54Q233.81 23.71 232.32 22.06Q230.83 20.40 228.38 20.40L228.38 20.40Q226.99 20.40 225.86 20.93Q224.74 21.46 223.92 22.32Q223.10 23.18 222.62 24.29Q222.14 25.39 222 26.54L222 26.54ZM258 28.75L258 28.75Q258 24.86 256.18 22.73Q254.35 20.59 251.42 20.59L251.42 20.59Q249.79 20.59 248.86 20.74Q247.92 20.88 247.39 21.07L247.39 21.07L247.39 35.14Q248.06 35.76 249.36 36.29Q250.66 36.82 252.05 36.82L252.05 36.82Q253.63 36.82 254.76 36.19Q255.89 35.57 256.61 34.49Q257.33 33.41 257.66 31.94Q258 30.48 258 28.75ZM262.08 28.75L262.08 28.75Q262.08 31.30 261.43 33.43Q260.78 35.57 259.56 37.10Q258.34 38.64 256.56 39.50Q254.78 40.37 252.53 40.37L252.53 40.37Q250.75 40.37 249.41 39.94Q248.06 39.50 247.39 38.98L247.39 38.98L247.39 47.76L243.41 47.76L243.41 18.24Q244.70 17.86 246.74 17.47Q248.78 17.09 251.42 17.09L251.42 17.09Q253.82 17.09 255.79 17.90Q257.76 18.72 259.15 20.23Q260.54 21.74 261.31 23.90Q262.08 26.06 262.08 28.75ZM276.24 37.01L276.24 37.01Q277.73 37.01 278.90 36.91Q280.08 36.82 280.85 36.67L280.85 36.67L280.85 30.05Q280.08 29.81 279 29.66Q277.92 29.52 276.72 29.52L276.72 29.52Q275.62 29.52 274.56 29.69Q273.50 29.86 272.69 30.29Q271.87 30.72 271.34 31.42Q270.82 32.11 270.82 33.17L270.82 33.17Q270.82 35.33 272.28 36.17Q273.74 37.01 276.24 37.01ZM275.86 17.04L275.86 17.04Q278.35 17.04 280.06 17.66Q281.76 18.29 282.82 19.39Q283.87 20.50 284.30 22.08Q284.74 23.66 284.74 25.54L284.74 25.54L284.74 39.46Q283.34 39.70 281.06 40.03Q278.78 40.37 276.38 40.37L276.38 40.37Q274.56 40.37 272.83 40.06Q271.10 39.74 269.76 38.95Q268.42 38.16 267.60 36.77Q266.78 35.38 266.78 33.22L266.78 33.22Q266.78 31.30 267.62 29.98Q268.46 28.66 269.78 27.84Q271.10 27.02 272.81 26.66Q274.51 26.30 276.24 26.30L276.24 26.30Q278.59 26.30 280.85 26.83L280.85 26.83L280.85 25.73Q280.85 24.72 280.63 23.78Q280.42 22.85 279.82 22.08Q279.22 21.31 278.18 20.86Q277.15 20.40 275.52 20.40L275.52 20.40Q273.46 20.40 271.92 20.69Q270.38 20.98 269.57 21.26L269.57 21.26L269.09 18.00Q269.90 17.62 271.80 17.33Q273.70 17.04 275.86 17.04ZM297.07 39.84L293.14 39.84L293.14 18.77Q298.03 17.09 303.02 17.09L303.02 17.09Q304.56 17.09 305.95 17.21Q307.34 17.33 309.02 17.71L309.02 17.71L308.30 21.22Q306.77 20.78 305.59 20.66Q304.42 20.54 303.02 20.54L303.02 20.54Q300.10 20.54 297.07 21.36L297.07 21.36L297.07 39.84ZM324.43 17.04L324.43 17.04Q328.94 17.04 331.39 19.85Q333.84 22.66 333.84 28.37L333.84 28.37L333.84 29.76L317.90 29.76Q318.14 33.22 320.18 35.02Q322.22 36.82 325.92 36.82L325.92 36.82Q328.03 36.82 329.52 36.48Q331.01 36.14 331.78 35.76L331.78 35.76L332.30 39.12Q331.58 39.50 329.71 39.94Q327.84 40.37 325.49 40.37L325.49 40.37Q322.61 40.37 320.42 39.48Q318.24 38.59 316.80 37.06Q315.36 35.52 314.64 33.38Q313.92 31.25 313.92 28.75L313.92 28.75Q313.92 25.78 314.83 23.57Q315.74 21.36 317.23 19.92Q318.72 18.48 320.59 17.76Q322.46 17.04 324.43 17.04ZM318 26.54L329.81 26.54Q329.81 23.71 328.32 22.06Q326.83 20.40 324.38 20.40L324.38 20.40Q322.99 20.40 321.86 20.93Q320.74 21.46 319.92 22.32Q319.10 23.18 318.62 24.29Q318.14 25.39 318 26.54L318 26.54ZM371.66 10.66L371.66 17.57L381.07 17.57L381.07 20.88L371.66 20.88L371.66 31.25Q371.66 32.93 371.90 33.98Q372.14 35.04 372.70 35.69Q373.25 36.34 374.11 36.58Q374.98 36.82 376.22 36.82L376.22 36.82Q377.95 36.82 379.01 36.53Q380.06 36.24 381.02 35.76L381.02 35.76L381.60 39.12Q380.93 39.41 379.46 39.89Q378 40.37 375.84 40.37L375.84 40.37Q373.34 40.37 371.76 39.79Q370.18 39.22 369.29 38.06Q368.40 36.91 368.06 35.21Q367.73 33.50 367.73 31.25L367.73 31.25L367.73 20.88L363.02 20.88L363.02 17.57L367.73 17.57L367.73 11.33L371.66 10.66ZM406.08 28.70L406.08 28.70Q406.08 31.34 405.34 33.48Q404.59 35.62 403.25 37.15Q401.90 38.69 400.03 39.53Q398.16 40.37 395.95 40.37L395.95 40.37Q393.79 40.37 391.94 39.53Q390.10 38.69 388.75 37.15Q387.41 35.62 386.66 33.48Q385.92 31.34 385.92 28.70L385.92 28.70Q385.92 26.06 386.66 23.90Q387.41 21.74 388.75 20.23Q390.10 18.72 391.94 17.88Q393.79 17.04 395.95 17.04L395.95 17.04Q398.16 17.04 400.03 17.88Q401.90 18.72 403.25 20.23Q404.59 21.74 405.34 23.90Q406.08 26.06 406.08 28.70ZM402 28.70L402 28.70Q402 24.91 400.37 22.73Q398.74 20.54 395.95 20.54L395.95 20.54Q393.22 20.54 391.61 22.73Q390 24.91 390 28.70L390 28.70Q390 32.45 391.61 34.63Q393.22 36.82 395.95 36.82L395.95 36.82Q398.74 36.82 400.37 34.63Q402 32.45 402 28.70ZM439.39 6.58L439.39 18.38Q440.11 17.95 441.48 17.50Q442.85 17.04 444.53 17.04L444.53 17.04Q446.78 17.04 448.56 17.90Q450.34 18.77 451.56 20.30Q452.78 21.84 453.43 23.98Q454.08 26.11 454.08 28.70L454.08 28.70Q454.08 31.39 453.31 33.55Q452.54 35.71 451.15 37.22Q449.76 38.74 447.79 39.55Q445.82 40.37 443.42 40.37L443.42 40.37Q440.78 40.37 438.72 39.98Q436.66 39.60 435.41 39.22L435.41 39.22L435.41 7.25L439.39 6.58ZM439.39 22.27L439.39 36.38Q440.30 36.62 441.22 36.74Q442.13 36.86 442.94 36.86L442.94 36.86Q446.26 36.86 448.13 34.82Q450 32.78 450 28.70L450 28.70Q450 26.98 449.66 25.46Q449.33 23.95 448.61 22.87Q447.89 21.79 446.76 21.17Q445.63 20.54 444.05 20.54L444.05 20.54Q442.66 20.54 441.36 21.10Q440.06 21.65 439.39 22.27L439.39 22.27ZM468.43 17.04L468.43 17.04Q472.94 17.04 475.39 19.85Q477.84 22.66 477.84 28.37L477.84 28.37L477.84 29.76L461.90 29.76Q462.14 33.22 464.18 35.02Q466.22 36.82 469.92 36.82L469.92 36.82Q472.03 36.82 473.52 36.48Q475.01 36.14 475.78 35.76L475.78 35.76L476.30 39.12Q475.58 39.50 473.71 39.94Q471.84 40.37 469.49 40.37L469.49 40.37Q466.61 40.37 464.42 39.48Q462.24 38.59 460.80 37.06Q459.36 35.52 458.64 33.38Q457.92 31.25 457.92 28.75L457.92 28.75Q457.92 25.78 458.83 23.57Q459.74 21.36 461.23 19.92Q462.72 18.48 464.59 17.76Q466.46 17.04 468.43 17.04ZM462 26.54L473.81 26.54Q473.81 23.71 472.32 22.06Q470.83 20.40 468.38 20.40L468.38 20.40Q466.99 20.40 465.86 20.93Q464.74 21.46 463.92 22.32Q463.10 23.18 462.62 24.29Q462.14 25.39 462 26.54L462 26.54ZM505.97 39.84L505.97 18.19Q508.85 17.09 511.39 17.09L511.39 17.09Q512.78 17.09 514.01 17.50Q515.23 17.90 516.10 18.77L516.10 18.77Q518.16 17.09 520.51 17.09L520.51 17.09Q521.66 17.09 522.70 17.52Q523.73 17.95 524.52 18.82Q525.31 19.68 525.79 20.98Q526.27 22.27 526.27 24.00L526.27 24.00L526.27 39.84L522.67 39.84L522.67 23.90Q522.67 22.18 521.90 21.26Q521.14 20.35 519.98 20.35L519.98 20.35Q519.41 20.35 518.78 20.64Q518.16 20.93 517.63 21.55L517.63 21.55Q517.92 22.66 517.92 24.00L517.92 24.00L517.92 31.25L514.32 31.25L514.32 23.95Q514.32 22.27 513.79 21.31Q513.26 20.35 511.73 20.35L511.73 20.35Q510.77 20.35 509.57 20.78L509.57 20.78L509.57 39.84L505.97 39.84ZM538.03 14.11L538.03 14.11Q536.78 14.11 535.87 13.25Q534.96 12.38 534.96 10.90L534.96 10.90Q534.96 9.41 535.87 8.54Q536.78 7.68 538.03 7.68L538.03 7.68Q539.33 7.68 540.22 8.54Q541.10 9.41 541.10 10.90L541.10 10.90Q541.10 12.38 540.22 13.25Q539.33 14.11 538.03 14.11ZM537.02 31.25L537.02 20.88L530.59 20.88L530.59 17.57L540.96 17.57L540.96 31.25Q540.96 34.56 541.87 35.69Q542.78 36.82 544.61 36.82L544.61 36.82Q546 36.82 547.18 36.48Q548.35 36.14 549.02 35.76L549.02 35.76L549.60 39.12Q549.31 39.26 548.78 39.48Q548.26 39.70 547.56 39.89Q546.86 40.08 546.02 40.22Q545.18 40.37 544.27 40.37L544.27 40.37Q542.16 40.37 540.77 39.79Q539.38 39.22 538.54 38.06Q537.70 36.91 537.36 35.21Q537.02 33.50 537.02 31.25L537.02 31.25ZM555.41 39.84L555.41 18.19Q557.57 17.66 559.70 17.38Q561.84 17.09 563.71 17.09L563.71 17.09Q568.18 17.09 570.46 19.39Q572.74 21.70 572.74 26.78L572.74 26.78L572.74 39.84L568.80 39.84L568.80 27.50Q568.80 25.34 568.42 24.00Q568.03 22.66 567.34 21.91Q566.64 21.17 565.66 20.88Q564.67 20.59 563.52 20.59L563.52 20.59Q562.56 20.59 561.48 20.71Q560.40 20.83 559.39 21.02L559.39 21.02L559.39 39.84L555.41 39.84ZM592.61 36.38L592.61 22.27Q591.94 21.65 590.64 21.10Q589.34 20.54 587.95 20.54L587.95 20.54Q586.37 20.54 585.24 21.17Q584.11 21.79 583.39 22.87Q582.67 23.95 582.34 25.46Q582 26.98 582 28.70L582 28.70Q582 32.59 583.82 34.70Q585.65 36.82 588.58 36.82L588.58 36.82Q590.06 36.82 591.10 36.67Q592.13 36.53 592.61 36.38L592.61 36.38ZM592.61 18.38L592.61 7.25L596.59 6.58L596.59 39.22Q595.30 39.60 593.28 39.98Q591.26 40.37 588.58 40.37L588.58 40.37Q586.18 40.37 584.21 39.55Q582.24 38.74 580.85 37.22Q579.46 35.71 578.69 33.55Q577.92 31.39 577.92 28.70L577.92 28.70Q577.92 26.11 578.57 23.98Q579.22 21.84 580.46 20.30Q581.71 18.77 583.46 17.90Q585.22 17.04 587.47 17.04L587.47 17.04Q589.25 17.04 590.59 17.47Q591.94 17.90 592.61 18.38L592.61 18.38ZM607.39 6.58L607.39 18.38Q608.11 17.95 609.48 17.50Q610.85 17.04 612.53 17.04L612.53 17.04Q614.78 17.04 616.56 17.90Q618.34 18.77 619.56 20.30Q620.78 21.84 621.43 23.98Q622.08 26.11 622.08 28.70L622.08 28.70Q622.08 31.39 621.31 33.55Q620.54 35.71 619.15 37.22Q617.76 38.74 615.79 39.55Q613.82 40.37 611.42 40.37L611.42 40.37Q608.78 40.37 606.72 39.98Q604.66 39.60 603.41 39.22L603.41 39.22L603.41 7.25L607.39 6.58ZM607.39 22.27L607.39 36.38Q608.30 36.62 609.22 36.74Q610.13 36.86 610.94 36.86L610.94 36.86Q614.26 36.86 616.13 34.82Q618 32.78 618 28.70L618 28.70Q618 26.98 617.66 25.46Q617.33 23.95 616.61 22.87Q615.89 21.79 614.76 21.17Q613.63 20.54 612.05 20.54L612.05 20.54Q610.66 20.54 609.36 21.10Q608.06 21.65 607.39 22.27L607.39 22.27ZM640.22 40.37L640.22 40.37Q638.11 40.37 636.72 39.79Q635.33 39.22 634.51 38.06Q633.70 36.91 633.36 35.21Q633.02 33.50 633.02 31.25L633.02 31.25L633.02 10.18L626.59 10.18L626.59 6.82L636.96 6.82L636.96 31.25Q636.96 32.93 637.18 33.98Q637.39 35.04 637.85 35.69Q638.30 36.34 638.98 36.58Q639.65 36.82 640.56 36.82L640.56 36.82Q641.95 36.82 643.15 36.48Q644.35 36.14 645.02 35.76L645.02 35.76L645.60 39.12Q645.31 39.26 644.78 39.48Q644.26 39.70 643.54 39.89Q642.82 40.08 641.98 40.22Q641.14 40.37 640.22 40.37ZM670.08 28.70L670.08 28.70Q670.08 31.34 669.34 33.48Q668.59 35.62 667.25 37.15Q665.90 38.69 664.03 39.53Q662.16 40.37 659.95 40.37L659.95 40.37Q657.79 40.37 655.94 39.53Q654.10 38.69 652.75 37.15Q651.41 35.62 650.66 33.48Q649.92 31.34 649.92 28.70L649.92 28.70Q649.92 26.06 650.66 23.90Q651.41 21.74 652.75 20.23Q654.10 18.72 655.94 17.88Q657.79 17.04 659.95 17.04L659.95 17.04Q662.16 17.04 664.03 17.88Q665.90 18.72 667.25 20.23Q668.59 21.74 669.34 23.90Q670.08 26.06 670.08 28.70ZM666 28.70L666 28.70Q666 24.91 664.37 22.73Q662.74 20.54 659.95 20.54L659.95 20.54Q657.22 20.54 655.61 22.73Q654 24.91 654 28.70L654 28.70Q654 32.45 655.61 34.63Q657.22 36.82 659.95 36.82L659.95 36.82Q662.74 36.82 664.37 34.63Q666 32.45 666 28.70ZM691.44 39.84L688.46 39.84Q687.74 38.21 687.22 36.86Q686.69 35.52 686.18 34.18Q685.68 32.83 685.18 31.37Q684.67 29.90 684 28.03L684 28.03Q683.33 29.90 682.80 31.37Q682.27 32.83 681.77 34.18Q681.26 35.52 680.71 36.86Q680.16 38.21 679.44 39.84L679.44 39.84L676.46 39.84Q675.12 33.94 674.23 28.15Q673.34 22.37 672.91 17.57L672.91 17.57L676.66 17.57Q676.80 19.44 676.97 21.24Q677.14 23.04 677.38 25.01Q677.62 26.98 677.93 29.28Q678.24 31.58 678.62 34.46L678.62 34.46Q679.39 32.54 679.92 31.10Q680.45 29.66 680.88 28.37Q681.31 27.07 681.72 25.73Q682.13 24.38 682.61 22.70L682.61 22.70L685.58 22.70Q686.06 24.38 686.45 25.73Q686.83 27.07 687.26 28.37Q687.70 29.66 688.18 31.10Q688.66 32.54 689.38 34.42L689.38 34.42Q689.81 31.78 690.14 29.52Q690.48 27.26 690.72 25.27Q690.96 23.28 691.15 21.41Q691.34 19.54 691.49 17.57L691.49 17.57L695.09 17.57Q694.85 19.97 694.51 22.70Q694.18 25.44 693.70 28.32Q693.22 31.20 692.64 34.15Q692.06 37.10 691.44 39.84L691.44 39.84ZM699.41 39.84L699.41 18.19Q701.57 17.66 703.70 17.38Q705.84 17.09 707.71 17.09L707.71 17.09Q712.18 17.09 714.46 19.39Q716.74 21.70 716.74 26.78L716.74 26.78L716.74 39.84L712.80 39.84L712.80 27.50Q712.80 25.34 712.42 24.00Q712.03 22.66 711.34 21.91Q710.64 21.17 709.66 20.88Q708.67 20.59 707.52 20.59L707.52 20.59Q706.56 20.59 705.48 20.71Q704.40 20.83 703.39 21.02L703.39 21.02L703.39 39.84L699.41 39.84ZM758.06 10.13L758.06 18.19Q758.06 19.97 758.02 21.46Q757.97 22.94 757.85 24.29Q757.73 25.63 757.58 26.95Q757.44 28.27 757.30 29.71L757.30 29.71L754.56 29.71Q754.42 28.27 754.27 26.95Q754.13 25.63 754.01 24.29Q753.89 22.94 753.84 21.46Q753.79 19.97 753.79 18.19L753.79 18.19L753.79 10.13L758.06 10.13ZM755.90 40.42L755.90 40.42Q754.61 40.42 753.65 39.53Q752.69 38.64 752.69 37.15L752.69 37.15Q752.69 35.66 753.65 34.78Q754.61 33.89 755.90 33.89L755.90 33.89Q757.25 33.89 758.18 34.78Q759.12 35.66 759.12 37.15L759.12 37.15Q759.12 38.64 758.18 39.53Q757.25 40.42 755.90 40.42ZM805.78 19.82L805.78 19.82Q807.07 21.02 808.46 22.34Q809.86 23.66 810.82 25.15L810.82 25.15L811.01 25.39L807.65 27.84L807.41 27.55Q806.40 26.11 805.58 24.41Q804.77 22.70 804.05 21.12L804.05 21.12Q803.28 22.70 802.46 24.41Q801.65 26.11 800.54 27.55L800.54 27.55L800.30 27.79L796.99 25.39L797.23 25.10Q798.29 23.62 799.63 22.32Q800.98 21.02 802.27 19.82L802.27 19.82Q800.50 19.58 798.62 19.32Q796.75 19.06 795.07 18.48L795.07 18.48L794.74 18.38L796.03 14.45L796.37 14.59Q798.05 15.26 799.75 16.08Q801.46 16.90 802.99 17.76L802.99 17.76Q802.61 16.03 802.30 14.16Q801.98 12.29 801.98 10.46L801.98 10.46L801.98 10.13L806.11 10.13L806.11 10.46Q806.11 12.29 805.80 14.16Q805.49 16.03 805.10 17.76L805.10 17.76Q806.64 16.85 808.32 16.06Q810 15.26 811.68 14.64L811.68 14.64L812.02 14.50L813.26 18.43L812.98 18.53Q811.25 19.06 809.40 19.34Q807.55 19.63 805.78 19.82ZM836.69 6.29L823.39 47.76L819.31 47.76L832.70 6.29L836.69 6.29Z"/></svg>